#!OML:ASF F:\VICON\USERDATA\INSTALL\Justin_Nancy\Justin_Nancy.ASF
:FULLY-SPECIFIED
:DEGREES
49
root -7.3891 17.4667 -4.88217 4.07158 2.1769 -0.380406
lowerback 14.6813 -1.12062 -2.92184
upperback 1.78337 -1.66655 4.13091
thorax -6.12936 -0.699548 6.40617
lowerneck -18.1801 0.0483243 -6.84466
upperneck 16.7628 1.53866 1.91036
head 8.13212 0.481841 1.94566
rclavicle 2.22639e-014 7.95139e-015
rhumerus -56.9176 14.1395 -85.4457
rradius 108.838
rwrist -5.11103
rhand -16.2455 28.7811
rfingers 7.12502
rthumb 9.96331 -0.963109
lclavicle 2.22639e-014 7.95139e-015
lhumerus -46.4795 -8.34199 96.3012
lradius 94.2962
lwrist 22.4941
lhand -16.7393 7.86807
lfingers 7.12502
lthumb 9.48692 37.6345
rfemur -32.8846 4.0371 5.39276
rtibia 29.1618
rfoot 0.90829 5.09105
rtoes -26.7356
lfemur -15.3276 4.93341 -30.3254
ltibia 65.0548
lfoot 12.3816 4.17249
ltoes -3.53424
50
root -7.29841 17.4552 -4.27944 3.86309 4.51199 -0.50747
lowerback 14.516 -1.66336 -2.46702
upperback 1.94355 -2.30156 4.2914
thorax -5.79534 -1.033 6.42142
lowerneck -18.494 -0.105579 -7.06257
upperneck 17.0242 1.40715 1.95473
head 8.2802 0.40443 1.98634
rclavicle -1.72943e-014 -1.59028e-015
rhumerus -56.2301 14.2086 -84.8394
rradius 108.533
rwrist -5.21102
rhand -16.1331 28.7572
rfingers 7.12502
rthumb 10.0718 -0.98177
lclavicle -1.72943e-014 -1.59028e-015
lhumerus -46.3597 -8.34936 96.1946
lradius 93.6043
lwrist 22.4317
lhand -15.6519 7.34148
lfingers 7.12502
lthumb 10.5359 37.0574
rfemur -30.6465 4.41288 4.54625
rtibia 25.1263
rfoot 1.29033 3.35091
rtoes -27.8961
lfemur -15.7318 3.57103 -29.425
ltibia 67.383
lfoot 11.2619 6.98141
ltoes -0.100062
51
root -7.21646 17.428 -3.68046 3.55477 6.60915 -0.547893
lowerback 14.4356 -2.03401 -2.30745
upperback 2.17907 -2.75941 4.44143
thorax -5.44174 -1.27489 6.55976
lowerneck -19.0099 -0.31145 -7.30462
upperneck 17.3561 1.23761 1.96722
head 8.49107 0.302415 2.01743
rclavicle 0 -1.51076e-014
rhumerus -55.3959 14.2466 -84.2638
rradius 108.259
rwrist -5.71588
rhand -15.8824 28.68
rfingers 7.12502
rthumb 10.3136 -1.04707
lclavicle 0 -1.51076e-014
lhumerus -46.3005 -8.1694 96.0004
lradius 93.0619
lwrist 21.9294
lhand -14.7679 7.11067
lfingers 7.12502
lthumb 11.3886 36.7814
rfemur -28.6704 4.73939 3.79006
rtibia 22.197
rfoot 1.97126 2.01463
rtoes -26.2668
lfemur -16.2722 2.3226 -28.5313
ltibia 69.6617
lfoot 9.85108 8.94343
ltoes 1.18345
52
root -7.13895 17.3782 -3.0905 3.21642 8.60134 -0.491214
lowerback 14.6244 -2.33153 -2.27918
upperback 2.20623 -3.1415 4.51525
thorax -5.46467 -1.46156 6.70306
lowerneck -18.9009 -0.385627 -7.4065
upperneck 17.4093 1.17122 1.89999
head 8.49418 0.255854 2.00283
rclavicle -4.33351e-014 3.18055e-015
rhumerus -55.0675 14.2409 -83.9665
rradius 108.214
rwrist -6.3453
rhand -15.3766 27.881
rfingers 7.12502
rthumb 10.8015 -1.82121
lclavicle -4.33351e-014 3.18055e-015
lhumerus -46.4326 -7.72219 95.7382
lradius 92.3608
lwrist 21.3019
lhand -14.9007 7.26914
lfingers 7.12502
lthumb 11.2606 36.9469
rfemur -26.8934 4.38613 3.26309
rtibia 20.4089
rfoot 2.67757 1.1349
rtoes -25.3039
lfemur -17.0694 1.09089 -27.7915
ltibia 71.9519
lfoot 8.24923 9.50931
ltoes 1.19639
53
root -7.06978 17.3129 -2.51181 2.95821 10.1103 -0.453348
lowerback 14.8508 -2.33555 -2.38694
upperback 2.19596 -3.15961 4.53372
thorax -5.59029 -1.46266 6.80477
lowerneck -18.7879 -0.526801 -7.4039
upperneck 17.4391 0.982893 1.83219
head 8.49494 0.159495 1.95565
rclavicle -8.94531e-015 2.8625e-014
rhumerus -54.8167 14.0603 -83.825
rradius 108.289
rwrist -7.22465
rhand -15.0922 26.63
rfingers 7.12502
rthumb 11.0759 -3.05771
lclavicle -8.94531e-015 2.8625e-014
lhumerus -46.656 -7.40017 95.4473
lradius 91.5592
lwrist 20.5422
lhand -16.0596 6.735
lfingers 7.12502
lthumb 10.1427 36.4705
rfemur -25.4565 3.7061 3.08255
rtibia 19.4946
rfoot 3.53915 0.978459
rtoes -24.2809
lfemur -18.2565 0.408504 -27.0487
ltibia 74.2603
lfoot 6.73108 8.6742
ltoes 1.46993
54
root -7.0043 17.2396 -1.9419 2.48509 11.0994 -0.803637
lowerback 15.1121 -2.02797 -2.26697
upperback 2.45851 -2.73002 4.60644
thorax -5.51183 -1.25885 6.74036
lowerneck -19.1201 -0.948839 -7.39991
upperneck 17.4538 0.4217 1.88402
head 8.58639 -0.0984578 1.90388
rclavicle 6.54002e-014 -1.90833e-014
rhumerus -53.9889 13.6714 -83.6445
rradius 108.335
rwrist -8.52117
rhand -14.9187 25.3307
rfingers 7.12502
rthumb 11.2432 -4.34802
lclavicle 6.54002e-014 -1.90833e-014
lhumerus -46.5194 -7.34816 95.0449
lradius 90.7211
lwrist 20.416
lhand -17.4315 5.03278
lfingers 7.12502
lthumb 8.81894 34.8285
rfemur -24.3613 3.103 3.59102
rtibia 19.5466
rfoot 4.7451 1.66852
rtoes -25.4396
lfemur -19.4185 0.271445 -25.8916
ltibia 76.6385
lfoot 2.61823 7.15093
ltoes -6.69719
55
root -6.93514 17.1761 -1.36668 1.72228 12.6093 -1.55335
lowerback 15.5684 -1.91978 -1.69975
upperback 2.79247 -2.48204 4.78765
thorax -5.45367 -1.15055 6.57644
lowerneck -19.3738 -1.41715 -7.44467
upperneck 17.2905 -0.204465 1.96931
head 8.60678 -0.38235 1.85918
rclavicle -2.0276e-014 2.14687e-014
rhumerus -53.0056 13.3752 -83.4832
rradius 108.561
rwrist -10.2484
rhand -14.3035 25.1283
rfingers 7.12502
rthumb 11.8364 -4.51718
lclavicle -2.0276e-014 2.14687e-014
lhumerus -46.1471 -7.05557 94.4711
lradius 89.7602
lwrist 20.3068
lhand -18.1187 4.2651
lfingers 7.12502
lthumb 8.15573 34.0877
rfemur -23.0961 2.16657 4.65067
rtibia 20.7668
rfoot 4.71564 2.39542
rtoes -16.4755
lfemur -21.5963 0.202228 -24.4931
ltibia 79.0868
lfoot 3.78879 5.38982
ltoes -3.95806
56
root -6.88535 17.0697 -0.800783 0.791626 14.436 -2.43945
lowerback 16.3222 -1.88977 -1.11726
upperback 3.04718 -2.3149 5.06681
thorax -5.6242 -1.07198 6.54588
lowerneck -18.3515 -1.62524 -7.4379
upperneck 16.0489 -0.580162 1.94092
head 8.02721 -0.538983 1.79106
rclavicle 2.32578e-014 -2.38542e-015
rhumerus -52.1933 13.4829 -83.7
rradius 108.451
rwrist -9.72179
rhand -15.7332 24.2893
rfingers 7.12502
rthumb 10.4575 -5.4306
lclavicle 2.32578e-014 -2.38542e-015
lhumerus -45.933 -6.44261 93.9275
lradius 88.9663
lwrist 19.9904
lhand -17.8455 5.84422
lfingers 7.12502
lthumb 8.41948 35.6564
rfemur -21.6917 1.03828 5.89976
rtibia 22.8978
rfoot 1.96433 3.63714
rtoes -11.2261
lfemur -23.4397 -0.394541 -22.7734
ltibia 81.667
lfoot 1.65773 4.48162
ltoes -6.28062
57
root -6.8478 16.9074 -0.298174 0.761232 12.0276 -3.21732
lowerback 16.7784 -0.21816 -1.4269
upperback 3.19088 -0.151169 5.22242
thorax -5.96892 0.00291353 6.45993
lowerneck -16.9811 -1.68449 -7.03713
upperneck 14.1879 -0.839053 1.6739
head 7.18426 -0.632464 1.59829
rclavicle -1.78906e-015 5.56597e-015
rhumerus -51.1905 13.2632 -83.8748
rradius 108.925
rwrist -10.2393
rhand -16.0779 24.1099
rfingers 7.12502
rthumb 10.125 -5.62646
lclavicle -1.78906e-015 5.56597e-015
lhumerus -45.8302 -5.8255 93.3606
lradius 88.4848
lwrist 20.1612
lhand -16.8252 6.39205
lfingers 7.12502
lthumb 9.40402 36.1623
rfemur -23.1482 1.59937 7.15852
rtibia 25.8041
rfoot -0.849071 4.35579
rtoes -14.8558
lfemur -26.0104 2.82698 -21.2451
ltibia 84.5856
lfoot -1.05134 4.3028
ltoes -3.15849
58
root -6.80631 16.7804 0.258616 -0.307407 14.2367 -4.04836
lowerback 17.7632 -0.198 -1.02704
upperback 3.41931 -0.00937516 5.56559
thorax -6.27454 0.0752094 6.59771
lowerneck -16.7891 -2.01954 -6.89762
upperneck 13.5937 -1.32824 1.57149
head 6.97782 -0.85847 1.48666
rclavicle -8.74653e-015 3.02153e-014
rhumerus -50.2413 13.3326 -84.0488
rradius 109.718
rwrist -10.6072
rhand -16.273 24.3184
rfingers 7.12502
rthumb 9.9368 -5.42712
lclavicle -8.74653e-015 3.02153e-014
lhumerus -45.8304 -4.94308 92.8866
lradius 88.2216
lwrist 20.6153
lhand -15.9233 2.69539
lfingers 7.12502
lthumb 10.2741 32.4245
rfemur -21.5942 0.432631 8.24899
rtibia 29.5123
rfoot -4.9793 1.95854
rtoes -19.1025
lfemur -28.4012 2.20365 -19.7182
ltibia 87.0207
lfoot -2.41252 3.71329
ltoes -3.24645
59
root -6.78171 16.6129 0.779146 -0.188791 13.3789 -5.05649
lowerback 17.653 0.996064 -1.17599
upperback 3.53222 1.55893 5.92633
thorax -6.29645 0.848667 6.71606
lowerneck -17.1772 -2.55204 -6.9292
upperneck 13.5081 -2.04716 1.77562
head 7.04889 -1.18334 1.47651
rclavicle 2.38542e-014 -3.89618e-014
rhumerus -49.0336 13.6511 -84.3437
rradius 110.646
rwrist -10.8419
rhand -17.201 24.0907
rfingers 7.12502
rthumb 9.04135 -5.69556
lclavicle 2.38542e-014 -3.89618e-014
lhumerus -45.5537 -4.00924 92.4248
lradius 87.9247
lwrist 21.2516
lhand -21.1108 7.8767
lfingers 7.12502
lthumb 5.26739 37.7912
rfemur -22.6354 1.15963 9.56113
rtibia 33.4901
rfoot -8.65545 1.43406
rtoes -21.8136
lfemur -32.3459 4.74379 -18.1657
ltibia 89.5056
lfoot -4.19874 3.37465
ltoes -5.1221
